<?xml version="1.0" standalone="no"?>
<!DOCTYPE svg PUBLIC "-//W3C//DTD SVG 20010904//EN" "http://www.w3.org/TR/2001/REC-SVG-20010904/DTD/svg10.dtd">
<!-- Created using Karbon14, part of koffice: http://www.koffice.org/karbon -->
<svg xmlns="http://www.w3.org/2000/svg" xmlns:xlink="http://www.w3.org/1999/xlink" width="595.277px" height="841.891px">
<title>Python WiFi logo</title>
<desc>A modifed Python logo.  One snake, green, with longer body and TV antennae.  Copyight 2009 by Sean Robinson &lt;seankrobinson@gmail.com&gt;.  Licensed under the Creative Commons Attribution License.</desc>
  <defs>
  </defs>
  <g id="Layer">
    <path fill="#15c11d" stroke="#000000" stroke-width="2.0126" d="M158.486 304.322C140.793 304.322 127.639 311.565 126.434 337.328L126.434 401.936C126.434 403.207 140.793 402.796 158.486 402.796L317.565 402.796C335.258 402.796 349.617 403.207 349.617 401.936L349.617 334.266C348.412 308.503 335.258 304.322 317.565 304.322L158.486 304.322Z"  />
    <path fill="#15c11d" stroke="#000000" stroke-width="2.0126" d="M267.692 510.612C290.405 510.714 307.326 504.215 309.004 480.833L309.331 422.179C309.338 421.026 290.903 421.316 268.192 421.213L63.996 420.293C41.2857 420.191 22.8546 419.736 21.4584 450.073L22.5051 482.322C23.9214 505.718 40.7865 509.589 63.4969 509.691L267.692 510.612Z"  />
    <path fill="#15c11d" stroke="#000000" stroke-width="2.0126" d="M463.203 617.045C512.725 617.148 555.813 564.911 559.47 541.53L567.402 460.181C567.413 459.027 531.898 527.748 482.375 527.647L114.734 527.302C65.217 527.199 25.0271 526.744 21.9848 557.081L24.2665 589.331C27.3542 612.726 64.1293 616.598 113.646 616.7L463.203 617.045Z"  />
    <path fill="#ffffff" stroke="#000000" d="M208.547 347.636C208.547 332.447 196.234 320.135 181.046 320.135C165.858 320.135 153.545 332.447 153.545 347.636C153.545 362.824 165.858 375.137 181.046 375.137C196.234 375.137 208.547 362.824 208.547 347.636Z"  />
    <path fill="#000000" stroke="#000000" d="M137.361 147.791L200.905 304.264L226.248 304.264L162.704 147.791L137.361 147.791Z"  />
    <path fill="#000000" stroke="#000000" d="M175.433 148.91C175.433 135.13 164.262 123.96 150.482 123.96C136.702 123.96 125.531 135.13 125.531 148.91C125.531 162.691 136.702 173.861 150.482 173.861C164.262 173.861 175.433 162.691 175.433 148.91Z"  />
    <path fill="#000000" stroke="#000000" d="M299.725 147.838L239.336 304.265L266.228 304.265L326.617 147.838L299.725 147.838Z"  />
    <path fill="#15c11d" stroke="#000000" stroke-width="2.0126" d="M21.5872 588.147C21.4982 603.737 30.3279 615.343 61.9692 616.466L141.334 616.618C142.895 616.621 142.464 603.969 142.552 588.379L143.357 448.219C143.447 432.632 144.025 419.98 142.464 419.977L59.3377 419.817C27.6842 420.817 22.4821 432.398 22.3933 447.987L21.5872 588.147Z"  />
    <path fill="#15c11d" stroke="#000000" stroke-width="2.0126" d="M352.645 334.173C352.707 317.875 346.177 305.743 322.793 304.577L264.138 304.436C262.985 304.432 263.307 317.66 263.246 333.958L262.692 480.485C262.63 496.782 262.208 510.008 263.362 510.011L324.795 510.159C348.189 509.105 352.03 496.998 352.091 480.701L352.645 334.173Z"  />
    <path fill="#15c11d" stroke="#15c11d" stroke-width="0" d="M136.738 527.968L136.738 615.848L150.538 615.848L150.538 527.968L136.738 527.968Z"  />
    <path fill="#15c11d" stroke="#15c11d" stroke-width="0" d="M136.163 420.929L136.163 509.187L149.964 509.187L149.964 420.929L136.163 420.929Z"  />
    <path fill="#15c11d" stroke="#15c11d" stroke-width="0" d="M256.781 421.662L256.781 509.654L270.581 509.654L270.581 421.662L256.781 421.662Z"  />
    <path fill="#15c11d" stroke="#15c11d" stroke-width="0" d="M255.967 305.124L255.967 402.421L269.766 402.421L269.766 305.124L255.967 305.124Z"  />
    <path fill="#000000" stroke="#000000" d="M334.433 146.91C334.433 133.13 323.262 121.96 309.482 121.96C295.702 121.96 284.531 133.13 284.531 146.91C284.531 160.691 295.702 171.861 309.482 171.861C323.262 171.861 334.433 160.691 334.433 146.91Z"  />
  </g>
</svg>
